<?xml version="1.0" encoding="UTF-8"?>
<svg width="24px" height="24px" viewBox="0 0 24 24" version="1.1" xmlns="http://www.w3.org/2000/svg">
    <g stroke="none" stroke-width="1" fill="none" fill-rule="evenodd">
        <path d="M12,2 C13.1045695,2 14,2.8954305 14,4 L14,6 L18,6 C19.1045695,6 20,6.8954305 20,8 L20,18 C20,19.1045695 19.1045695,20 18,20 L6,20 C4.8954305,20 4,19.1045695 4,18 L4,8 C4,6.8954305 4.8954305,6 6,6 L10,6 L10,4 C10,2.8954305 10.8954305,2 12,2 Z M17.5,11 C16.6715729,11 16,11.6715729 16,12.5 C16,13.3284271 16.6715729,14 17.5,14 C18.3284271,14 19,13.3284271 19,12.5 C19,11.6715729 18.3284271,11 17.5,11 Z M6.5,11 C5.67157288,11 5,11.6715729 5,12.5 C5,13.3284271 5.67157288,14 6.5,14 C7.32842712,14 8,13.3284271 8,12.5 C8,11.6715729 7.32842712,11 6.5,11 Z M12,15 C10.8954305,15 10,15.8954305 10,17 L14,17 C14,15.8954305 13.1045695,15 12,15 Z" fill="currentColor"></path>
    </g>
</svg> 